<svg width="210" height="58" viewBox="0 0 210 58" fill="none" xmlns="http://www.w3.org/2000/svg">
<g opacity="0.5" filter="url(#filter0_d_332_734)">
<path d="M4 25C4 11.1929 15.1929 0 29 0H181C194.807 0 206 11.1929 206 25V25C206 38.8071 194.807 50 181 50H29C15.1929 50 4 38.8071 4 25V25Z" fill="#4E8C9F"/>
</g>
<path d="M57.4552 17.6421V19.4221C57.4552 22.6221 59.3552 25.0421 62.3552 25.4821V27.3621C59.1152 27.1621 56.4752 25.1421 55.9952 23.8621C55.4952 25.1821 52.7952 27.1421 49.7552 27.3821V25.5021C52.5752 25.0221 54.6552 22.6421 54.6552 19.3821V17.6421H57.4552ZM47.9552 30.3421H54.6952V26.3421H57.4152V30.3421H64.1552V32.1421H47.9552V30.3421ZM68.583 22.1421H72.263V17.6421H74.963V29.7421H67.963C66.863 29.7421 65.883 28.6421 65.883 27.3021V17.6421H68.583V22.1421ZM68.583 23.9421V27.1021C68.583 27.6621 68.923 27.9421 69.343 27.9421H72.263V23.9421H68.583ZM80.363 16.6421V34.7421H77.663V16.6421H80.363ZM87.3308 27.7421H89.6108C90.8508 27.7421 91.7908 27.7821 92.8708 27.1421V16.6421H95.4708V22.2421H96.7708V16.6421H99.3708V34.7421H96.7708V24.0421H95.4708V34.7421H92.8708V28.8821C91.9308 29.3821 90.7708 29.5421 89.5108 29.5421H85.8708C84.6708 29.5421 83.7708 28.4021 83.7708 27.0621V17.6421H86.4708V27.0021C86.4708 27.4621 86.7708 27.7421 87.3308 27.7421ZM106.439 16.6421C107.919 16.6421 109.399 17.3421 110.319 18.5421H113.879V16.6421H116.579V26.7421H113.879V24.7421H110.019C109.119 25.7021 107.799 26.2421 106.439 26.2421C103.959 26.2421 101.579 24.4621 101.579 21.4621C101.579 18.6221 103.939 16.6421 106.439 16.6421ZM111.159 20.3421C111.239 20.7021 111.279 21.0621 111.279 21.4621C111.279 21.9821 111.199 22.4821 111.059 22.9421H113.879V20.3421H111.159ZM106.439 18.4421C105.419 18.4421 104.279 19.4621 104.279 21.4621C104.279 23.3421 105.399 24.4421 106.419 24.4421C107.459 24.4421 108.579 23.3821 108.579 21.4621C108.579 19.4621 107.519 18.4421 106.439 18.4421ZM116.579 34.9421H113.879V29.5421H104.779V27.7421H116.579V34.9421ZM140.203 19.4421H135.483C135.483 22.6421 137.383 25.0421 140.383 25.4821V27.3621C137.143 27.1621 134.503 25.2421 134.023 23.9621C133.523 25.2821 130.823 27.1421 127.783 27.3821V25.5021C130.583 25.0221 132.663 22.6621 132.683 19.4421H128.003V17.6421H140.203V19.4421ZM125.983 30.3421H132.723V26.3421H135.443V30.3421H142.183V32.1421H125.983V30.3421ZM147.37 18.4221V16.4221H150.17V18.4221H153.81V20.2221H151.91C152.69 21.0621 153.25 22.2221 153.25 23.6221C153.25 26.1021 151.79 27.7221 150.11 28.3021V29.4221H153.59C154.27 29.4221 155.05 29.3421 155.69 28.9821V16.6421H158.39V34.7421H155.69V30.8421C155.17 31.0821 154.35 31.2221 153.73 31.2221H143.49V29.4221H147.43V28.3021C145.71 27.7421 144.27 26.0821 144.27 23.6221C144.27 22.2221 144.81 21.0621 145.57 20.2221H143.81V18.4221H147.37ZM148.77 20.3621C147.87 20.3621 146.97 21.6621 146.97 23.6221C146.97 25.4221 147.83 26.7221 148.75 26.7221C149.63 26.7221 150.55 25.4621 150.55 23.6221C150.55 21.7021 149.73 20.3621 148.77 20.3621Z" fill="#605C5C"/>
<defs>
<filter id="filter0_d_332_734" x="0" y="0" width="210" height="58" filterUnits="userSpaceOnUse" color-interpolation-filters="sRGB">
<feFlood flood-opacity="0" result="BackgroundImageFix"/>
<feColorMatrix in="SourceAlpha" type="matrix" values="0 0 0 0 0 0 0 0 0 0 0 0 0 0 0 0 0 0 127 0" result="hardAlpha"/>
<feOffset dy="4"/>
<feGaussianBlur stdDeviation="2"/>
<feComposite in2="hardAlpha" operator="out"/>
<feColorMatrix type="matrix" values="0 0 0 0 0 0 0 0 0 0 0 0 0 0 0 0 0 0 0.25 0"/>
<feBlend mode="normal" in2="BackgroundImageFix" result="effect1_dropShadow_332_734"/>
<feBlend mode="normal" in="SourceGraphic" in2="effect1_dropShadow_332_734" result="shape"/>
</filter>
</defs>
</svg>
