<svg width="256" height="81" viewBox="0 0 256 81" fill="none" xmlns="http://www.w3.org/2000/svg">
<g opacity="0.5" filter="url(#filter0_d_44_1893)">
<path d="M4 36.5C4 16.3416 20.3416 0 40.5 0H215.5C235.658 0 252 16.3416 252 36.5V36.5C252 56.6584 235.658 73 215.5 73H40.5C20.3416 73 4 56.6584 4 36.5V36.5Z" fill="#4E8C9F"/>
</g>
<path d="M53.9181 30.8895H50.8461C51.0381 33.4815 52.2381 35.3775 54.3021 36.0255V38.2815C51.8301 38.0655 49.4781 36.1695 49.0941 35.0655C48.7341 36.1935 46.4301 38.0415 43.9821 38.2815V36.0255C45.9741 35.3775 47.2461 33.5295 47.4381 30.8895H44.3421V28.7295H47.4621V26.8095H50.8221V28.7295H53.9181V30.8895ZM58.5021 33.4095V38.6895H55.3821V27.0495H58.5021V31.2495H60.0621V27.0495H63.1821V38.6895H60.0621V33.4095H58.5021ZM63.4461 49.0095H51.3021C49.9821 49.0095 48.8061 47.6415 48.8061 46.0815V43.1775H59.9421V41.7855H48.8061V39.6255H63.2061V43.2975C63.2061 44.3775 62.4621 45.3375 61.6221 45.3375H52.0461V46.0095C52.0461 46.5135 52.4061 46.8495 53.0301 46.8495H63.4461V49.0095ZM73.6314 46.6095H83.5914V48.7695H71.7354C70.4154 48.7695 69.4314 47.4255 69.4314 45.8895V41.3295H72.6714V45.6495C72.6714 46.2255 73.0554 46.6095 73.6314 46.6095ZM68.9754 39.7455C67.6074 39.7455 66.4314 38.3775 66.4314 36.8175V32.6895H73.6314V30.0255H66.4314V27.8655H76.8714V32.8335C76.8714 33.8895 76.1274 34.8495 75.2874 34.8495H69.6714V36.7215C69.6714 37.2495 70.0314 37.5855 70.6554 37.5855H75.6714C77.5194 37.5855 78.8874 37.5615 80.3514 36.6735V27.0495H83.5914V43.2495H80.3514V38.8095C79.1274 39.5535 77.4234 39.7455 75.6954 39.7455H68.9754ZM98.9608 30.4095H95.2408V32.6175C95.2168 36.5055 96.8248 39.5775 99.4408 40.5855V42.8655C96.5368 42.4575 93.8968 39.9375 93.4648 38.6175C93.0328 39.9615 90.4888 42.4095 87.6808 42.8655V40.5855C90.2728 39.5535 91.8568 36.5535 91.8808 32.5695V30.4095H88.0408V28.2495H98.9608V30.4095ZM105.201 27.0495V48.7695H101.961V27.0495H105.201ZM127.766 29.9295H124.046C124.094 33.4095 125.726 35.8815 128.246 36.5775V38.7375C125.414 38.5935 122.75 36.3855 122.318 35.1135C121.838 36.3615 119.342 38.5455 116.486 38.7375V36.5775C119.102 35.8335 120.614 33.4335 120.686 29.9295H116.846V27.7695H127.766V29.9295ZM134.246 27.0495V39.1695H131.006V33.7695H126.806V31.6095H131.006V27.0495H134.246ZM134.246 49.0095H131.006V42.5295H120.086V40.3695H134.246V49.0095ZM151.655 35.9055C152.039 34.6815 152.159 33.1215 152.159 31.5615V29.6895H140.759V27.5295H155.399V31.4895C155.399 33.1215 155.183 34.7055 154.799 35.9055H157.775V38.0655H138.335V35.9055H151.655ZM143.975 42.3615V45.9855C143.975 46.6095 144.359 46.8495 144.911 46.8495H152.135V42.3615H143.975ZM155.375 40.2015V49.0095H142.943C141.743 49.0095 140.735 47.6655 140.735 46.0335V40.2015H155.375ZM172.42 30.4095H167.02V28.2495H175.78V30.6735C175.756 36.6015 172.564 41.7855 166.9 42.8655V40.6815C170.356 39.2895 172.396 35.4975 172.42 31.2975V30.4095ZM180.94 35.9295V48.7695H177.82V27.0495H180.94V33.7695H182.5V27.0495H185.62V48.7695H182.5V35.9295H180.94ZM196.069 27.5295V28.6815C196.069 32.2335 197.677 34.8975 200.269 35.5455V37.7775C197.341 37.5135 194.869 35.6655 194.341 34.1775C193.765 35.6175 191.317 37.5135 188.509 37.7775V35.5455C191.221 34.8975 192.685 32.2335 192.709 28.7295V27.5295H196.069ZM198.829 30.7695H203.029V27.0495H206.269V37.9695H203.029V32.9295H198.829V30.7695ZM206.533 49.0095H194.629C193.309 49.0095 192.133 47.6415 192.133 46.0815V42.9615H203.029V41.3295H192.133V39.1695H206.293V43.0815C206.293 44.1615 205.549 45.1215 204.709 45.1215H195.373V46.0095C195.373 46.5135 195.733 46.8495 196.357 46.8495H206.533V49.0095Z" fill="#605C5C"/>
<defs>
<filter id="filter0_d_44_1893" x="0" y="0" width="256" height="81" filterUnits="userSpaceOnUse" color-interpolation-filters="sRGB">
<feFlood flood-opacity="0" result="BackgroundImageFix"/>
<feColorMatrix in="SourceAlpha" type="matrix" values="0 0 0 0 0 0 0 0 0 0 0 0 0 0 0 0 0 0 127 0" result="hardAlpha"/>
<feOffset dy="4"/>
<feGaussianBlur stdDeviation="2"/>
<feComposite in2="hardAlpha" operator="out"/>
<feColorMatrix type="matrix" values="0 0 0 0 0 0 0 0 0 0 0 0 0 0 0 0 0 0 0.25 0"/>
<feBlend mode="normal" in2="BackgroundImageFix" result="effect1_dropShadow_44_1893"/>
<feBlend mode="normal" in="SourceGraphic" in2="effect1_dropShadow_44_1893" result="shape"/>
</filter>
</defs>
</svg>
