<svg width="249" height="54" viewBox="0 0 249 54" fill="none" xmlns="http://www.w3.org/2000/svg">
<path d="M44.2096 28.8H47.8736C48.375 28.8 48.839 28.7893 49.2656 28.768C49.6923 28.736 50.0923 28.6187 50.4656 28.416V19.84H52.1456V24.32H54.0656V25.6H52.1456V34.24H50.4656V29.632C50.1136 29.8133 49.7083 29.936 49.2496 30C48.8016 30.0533 48.343 30.08 47.8736 30.08H43.3296C43.1056 30.08 42.8923 30.032 42.6896 29.936C42.4976 29.8293 42.3323 29.6907 42.1936 29.52C42.055 29.3493 41.943 29.152 41.8576 28.928C41.783 28.6933 41.7456 28.4427 41.7456 28.176V20.48H43.4256V28.144C43.4256 28.3253 43.495 28.48 43.6336 28.608C43.783 28.736 43.975 28.8 44.2096 28.8ZM58.4386 20.32C58.8973 20.32 59.34 20.416 59.7666 20.608C60.204 20.8 60.5933 21.072 60.9346 21.424C61.276 21.776 61.548 22.1973 61.7506 22.688C61.964 23.1787 62.0706 23.7173 62.0706 24.304C62.0706 24.912 61.964 25.4613 61.7506 25.952C61.548 26.4427 61.276 26.864 60.9346 27.216C60.5933 27.568 60.204 27.84 59.7666 28.032C59.34 28.224 58.8973 28.32 58.4386 28.32C57.9693 28.32 57.5106 28.224 57.0626 28.032C56.6253 27.8293 56.236 27.552 55.8946 27.2C55.564 26.848 55.2973 26.4267 55.0946 25.936C54.892 25.4453 54.7906 24.9013 54.7906 24.304C54.7906 23.7173 54.892 23.1787 55.0946 22.688C55.2973 22.1973 55.564 21.776 55.8946 21.424C56.236 21.072 56.6253 20.8 57.0626 20.608C57.5106 20.416 57.9693 20.32 58.4386 20.32ZM58.4386 21.6C58.204 21.6 57.9693 21.664 57.7346 21.792C57.5 21.92 57.2866 22.1013 57.0946 22.336C56.9133 22.5707 56.764 22.8533 56.6466 23.184C56.5293 23.5147 56.4706 23.888 56.4706 24.304C56.4706 24.7307 56.5293 25.1147 56.6466 25.456C56.764 25.7973 56.9133 26.0853 57.0946 26.32C57.276 26.5547 57.484 26.736 57.7186 26.864C57.9533 26.9813 58.188 27.04 58.4226 27.04C58.6573 27.04 58.892 26.976 59.1266 26.848C59.3613 26.72 59.5693 26.5387 59.7506 26.304C59.9426 26.0693 60.0973 25.7813 60.2146 25.44C60.332 25.0987 60.3906 24.72 60.3906 24.304C60.3906 23.888 60.332 23.5147 60.2146 23.184C60.108 22.8427 59.9586 22.5547 59.7666 22.32C59.5853 22.0853 59.3773 21.9093 59.1426 21.792C58.9186 21.664 58.684 21.6 58.4386 21.6ZM65.4306 19.84V34.24H63.7506V30.864C63.5693 30.9707 63.3346 31.0507 63.0466 31.104C62.7693 31.1573 62.492 31.184 62.2146 31.184H54.5506V29.904H62.1826C62.812 29.904 63.3346 29.7867 63.7506 29.552V19.84H65.4306ZM76.112 19.712C76.5493 19.712 76.9813 19.8027 77.408 19.984C77.8347 20.1547 78.2133 20.4 78.544 20.72C78.8747 21.0293 79.1413 21.4027 79.344 21.84C79.5467 22.2773 79.648 22.7573 79.648 23.28C79.648 23.824 79.552 24.3147 79.36 24.752C79.168 25.1893 78.9067 25.568 78.576 25.888C78.256 26.1973 77.8827 26.4373 77.456 26.608C77.0293 26.768 76.5813 26.848 76.112 26.848C75.632 26.848 75.1733 26.7627 74.736 26.592C74.3093 26.4213 73.9307 26.1813 73.6 25.872C73.28 25.5627 73.024 25.1893 72.832 24.752C72.64 24.304 72.544 23.8133 72.544 23.28C72.544 22.7573 72.6347 22.2773 72.816 21.84C73.008 21.4027 73.264 21.0293 73.584 20.72C73.9147 20.4 74.2933 20.1547 74.72 19.984C75.1573 19.8027 75.6213 19.712 76.112 19.712ZM76.112 20.992C75.856 20.992 75.616 21.0507 75.392 21.168C75.168 21.2747 74.9653 21.4293 74.784 21.632C74.6133 21.824 74.4747 22.064 74.368 22.352C74.272 22.6293 74.224 22.9387 74.224 23.28C74.224 23.6107 74.272 23.9147 74.368 24.192C74.4747 24.4693 74.6133 24.7093 74.784 24.912C74.9547 25.1147 75.152 25.2747 75.376 25.392C75.6 25.5093 75.84 25.568 76.096 25.568C76.3413 25.568 76.576 25.5093 76.8 25.392C77.024 25.2747 77.2213 25.1147 77.392 24.912C77.5733 24.7093 77.712 24.4693 77.808 24.192C77.9147 23.904 77.968 23.6 77.968 23.28C77.968 22.9387 77.9147 22.6293 77.808 22.352C77.712 22.064 77.5733 21.824 77.392 21.632C77.2213 21.4293 77.024 21.2747 76.8 21.168C76.576 21.0507 76.3467 20.992 76.112 20.992ZM83.04 19.84V34.24H81.36V28.624C81.1787 28.7307 80.944 28.8107 80.656 28.864C80.3787 28.9173 80.1013 28.944 79.824 28.944H77.008V33.76H75.312V28.944H72.16V27.664H79.792C80.4213 27.664 80.944 27.5467 81.36 27.312V19.84H83.04ZM90.005 20.64V23.392C90.005 24.0427 90.0637 24.6613 90.181 25.248C90.309 25.824 90.4903 26.352 90.725 26.832C90.9703 27.312 91.269 27.728 91.621 28.08C91.973 28.432 92.3677 28.704 92.805 28.896V30.24C92.421 30.1867 92.0263 30.0533 91.621 29.84C91.2157 29.6267 90.837 29.3707 90.485 29.072C90.133 28.7627 89.829 28.4267 89.573 28.064C89.3277 27.7013 89.1677 27.344 89.093 26.992C89.0077 27.3547 88.8423 27.7173 88.597 28.08C88.3517 28.432 88.0583 28.7627 87.717 29.072C87.3757 29.3707 87.0077 29.6267 86.613 29.84C86.2183 30.0427 85.829 30.176 85.445 30.24V28.896C85.8717 28.704 86.2557 28.432 86.597 28.08C86.9383 27.7173 87.2317 27.296 87.477 26.816C87.7223 26.3253 87.909 25.7867 88.037 25.2C88.1757 24.6133 88.245 24 88.245 23.36V20.64H90.005ZM96.165 19.84V34.24H94.485V19.84H96.165ZM100.298 30.24C100.085 30.24 99.882 30.192 99.69 30.096C99.5087 29.9893 99.3433 29.856 99.194 29.696C99.0553 29.5253 98.9433 29.328 98.858 29.104C98.7727 28.88 98.73 28.64 98.73 28.384V24.72H103.61V21.92H98.73V20.64H105.29V24.736C105.29 25.0773 105.189 25.376 104.986 25.632C104.794 25.8773 104.559 26 104.282 26H100.41V28.304C100.41 28.4853 100.479 28.64 100.618 28.768C100.757 28.896 100.927 28.96 101.13 28.96H104.858C105.391 28.96 105.887 28.944 106.346 28.912C106.815 28.8693 107.237 28.7253 107.61 28.48V19.84H109.29V34.24H107.61V29.696C107.258 29.9093 106.837 30.0533 106.346 30.128C105.866 30.2027 105.37 30.24 104.858 30.24H100.298ZM118.815 20.64V22.112C118.815 22.7413 118.906 23.3333 119.087 23.888C119.279 24.4427 119.54 24.9333 119.871 25.36C120.202 25.7867 120.596 26.144 121.055 26.432C121.514 26.7093 122.02 26.8907 122.575 26.976V28.32C122.01 28.2667 121.471 28.144 120.959 27.952C120.447 27.7493 119.983 27.5093 119.567 27.232C119.151 26.944 118.799 26.6293 118.511 26.288C118.223 25.9467 118.02 25.6053 117.903 25.264C117.786 25.6053 117.578 25.9467 117.279 26.288C116.991 26.6187 116.639 26.928 116.223 27.216C115.818 27.4933 115.364 27.7333 114.863 27.936C114.362 28.128 113.839 28.256 113.295 28.32V26.976C113.828 26.8693 114.324 26.6773 114.783 26.4C115.242 26.112 115.636 25.76 115.967 25.344C116.308 24.9173 116.575 24.4267 116.767 23.872C116.959 23.3173 117.055 22.72 117.055 22.08V20.64H118.815ZM111.855 30.88H124.015V32.16H111.855V30.88ZM126.596 20.64H135.396V21.92H128.276V24.064H135.22V25.344H128.276V26.864C128.276 27.0453 128.345 27.2 128.484 27.328C128.633 27.456 128.825 27.52 129.06 27.52H135.556V28.8H128.18C127.956 28.8 127.743 28.752 127.54 28.656C127.348 28.5493 127.183 28.4107 127.044 28.24C126.905 28.0693 126.793 27.872 126.708 27.648C126.633 27.4133 126.596 27.1627 126.596 26.896V20.64ZM124.98 31.04H137.14V32.32H124.98V31.04ZM144.269 21.68V25.872C144.269 26.0853 144.339 26.256 144.477 26.384C144.616 26.5013 144.787 26.56 144.989 26.56H147.469V21.68H144.269ZM149.149 20.4V27.84H144.205C143.981 27.84 143.768 27.792 143.565 27.696C143.373 27.6 143.203 27.472 143.053 27.312C142.915 27.1413 142.803 26.944 142.717 26.72C142.632 26.496 142.589 26.2507 142.589 25.984V20.4H149.149ZM152.989 24.64V30.24H151.309V19.84H152.989V23.36H154.909V24.64H152.989ZM146.733 32.96H153.149V34.24H145.789C145.576 34.24 145.379 34.192 145.197 34.096C145.027 34 144.877 33.8667 144.749 33.696C144.621 33.536 144.52 33.344 144.445 33.12C144.381 32.896 144.349 32.6613 144.349 32.416V29.12H146.029V32.256C146.029 32.448 146.099 32.6133 146.237 32.752C146.376 32.8907 146.541 32.96 146.733 32.96ZM157.33 20H166.29V21.28H159.01V22.864C159.01 23.0453 159.08 23.2 159.218 23.328C159.368 23.456 159.56 23.52 159.794 23.52H166.29V24.8H158.914C158.69 24.8 158.477 24.752 158.274 24.656C158.082 24.5493 157.917 24.4107 157.778 24.24C157.64 24.0693 157.528 23.872 157.442 23.648C157.368 23.4133 157.33 23.1627 157.33 22.896V20ZM155.714 26.016H167.874V27.296H155.714V26.016ZM166.45 34.4H158.898C158.685 34.4 158.482 34.3467 158.29 34.24C158.109 34.144 157.944 34.0107 157.794 33.84C157.656 33.68 157.544 33.488 157.458 33.264C157.373 33.04 157.33 32.8 157.33 32.544V30.72H164.594V29.76H157.33V28.48H166.29V30.736C166.29 31.0773 166.189 31.376 165.986 31.632C165.794 31.8773 165.56 32 165.282 32H159.01V32.464C159.01 32.6453 159.08 32.8 159.218 32.928C159.357 33.056 159.528 33.12 159.73 33.12H166.45V34.4ZM170.407 30.24C170.194 30.24 169.991 30.192 169.799 30.096C169.618 29.9893 169.453 29.856 169.303 29.696C169.165 29.5253 169.053 29.328 168.967 29.104C168.882 28.88 168.839 28.64 168.839 28.384V24.72H173.719V21.92H168.839V20.64H175.399V24.736C175.399 25.0773 175.298 25.376 175.095 25.632C174.903 25.8773 174.669 26 174.391 26H170.519V28.304C170.519 28.4853 170.589 28.64 170.727 28.768C170.866 28.896 171.037 28.96 171.239 28.96H174.967C175.266 28.96 175.554 28.96 175.831 28.96C176.119 28.9493 176.391 28.9227 176.647 28.88C176.903 28.8373 177.149 28.768 177.383 28.672C177.618 28.5653 177.837 28.416 178.039 28.224V25.76H175.879V24.48H178.039V19.84H179.719V34.24H178.039V29.456C177.698 29.7653 177.245 29.9733 176.679 30.08C176.125 30.1867 175.554 30.24 174.967 30.24H170.407ZM186.764 21.92H182.284V20.64H188.524V22.352C188.524 23.44 188.354 24.4427 188.012 25.36C187.671 26.2667 187.207 27.0667 186.62 27.76C186.044 28.4427 185.367 29.0027 184.588 29.44C183.82 29.8667 182.999 30.1333 182.124 30.24V28.96C182.85 28.7573 183.495 28.4427 184.06 28.016C184.636 27.5787 185.122 27.072 185.516 26.496C185.922 25.92 186.231 25.2907 186.444 24.608C186.658 23.9253 186.764 23.232 186.764 22.528V21.92ZM192.364 25.6V34.24H190.684V19.84H192.364V24.32H194.284V25.6H192.364ZM199.889 21.92H195.409V20.64H201.649V22.352C201.649 23.44 201.479 24.4427 201.137 25.36C200.796 26.2667 200.332 27.0667 199.745 27.76C199.169 28.4427 198.492 29.0027 197.713 29.44C196.945 29.8667 196.124 30.1333 195.249 30.24V28.96C195.975 28.7573 196.62 28.4427 197.185 28.016C197.761 27.5787 198.247 27.072 198.641 26.496C199.047 25.92 199.356 25.2907 199.569 24.608C199.783 23.9253 199.889 23.232 199.889 22.528V21.92ZM205.649 19.84V34.24H203.969V19.84H205.649Z" fill="black"/>
<rect x="0.5" y="0.5" width="248" height="53" rx="19.5" stroke="black"/>
</svg>
