<svg width="314" height="81" viewBox="0 0 314 81" fill="none" xmlns="http://www.w3.org/2000/svg">
<g opacity="0.5" filter="url(#filter0_d_230_726)">
<path d="M4 36.5C4 16.3416 20.3416 0 40.5 0H273.5C293.658 0 310 16.3416 310 36.5V36.5C310 56.6584 293.658 73 273.5 73H40.5C20.3416 73 4 56.6584 4 36.5V36.5Z" fill="#4E8C9F"/>
</g>
<path d="M68.8186 37.3695C69.3706 36.0495 69.4426 34.6815 69.4426 32.9055V29.9295H58.0426V27.7695H72.6826V32.8575C72.6826 34.6815 72.4186 36.1215 71.9626 37.3695H75.0586V39.5295H66.9706V48.7695H63.7066V39.5295H55.6186V37.3695H68.8186ZM80.2279 30.4095V39.4335C80.2279 40.0575 80.5879 40.3695 81.0679 40.3695H82.7479V30.4095H80.2279ZM91.0279 35.9295V48.7695H87.9079V27.0495H91.0279V33.7695H92.588V27.0495H95.708V48.7695H92.588V35.9295H91.0279ZM85.9879 28.2495V42.5295H79.6039C78.1639 42.5295 76.9879 41.2335 76.9879 39.6255V28.2495H85.9879ZM104.117 30.4095H98.7173V28.2495H107.477V30.6495H109.757V27.0495H112.877V48.7695H109.757V40.2495H106.061V38.0895H109.757V32.8095H107.333C106.637 37.8015 103.565 41.9295 98.5973 42.8655V40.6815C102.053 39.2895 104.093 35.4975 104.117 31.2975V30.4095ZM117.317 27.0495V48.7695H114.197V27.0495H117.317ZM124.503 28.2495V26.5455H127.863V28.2495H132.231V30.4095H130.599C131.175 31.0815 131.559 31.9215 131.559 32.9295C131.559 35.1135 129.831 36.7935 127.791 37.3695V38.2095H131.967C132.807 38.2095 133.623 38.1375 134.487 37.6575V27.0495H137.727V40.9695H134.487V39.9135C133.863 40.2015 132.879 40.3695 132.135 40.3695H119.847V38.2095H124.575V37.3695C122.487 36.8175 120.783 35.1375 120.783 32.9295C120.783 31.9215 121.167 31.0815 121.743 30.4095H120.231V28.2495H124.503ZM126.183 30.4575C124.983 30.4575 124.023 31.5135 124.023 32.9295C124.023 34.2495 124.887 35.3055 126.159 35.3055C127.239 35.3055 128.319 34.3215 128.319 32.9295C128.319 31.5615 127.335 30.4575 126.183 30.4575ZM137.727 49.0095H134.487V43.9695H123.567V41.8095H137.727V49.0095ZM144.696 42.7695C143.352 42.7695 142.176 41.4015 142.176 39.8655V34.2495H149.376V30.4095H142.176V28.2495H152.616V34.3935C152.616 35.4495 151.872 36.4095 151.032 36.4095H145.416V39.7455C145.416 40.2735 145.776 40.6095 146.4 40.6095H151.656C153.384 40.6095 154.776 40.6335 156.096 39.8655V27.0495H159.336V48.7695H156.096V42.0015C154.944 42.6015 153.288 42.7695 151.704 42.7695H144.696ZM175.065 28.2495V30.3855C175.065 34.2255 177.345 37.1295 180.945 37.6575V39.9135C177.057 39.6735 173.889 37.2495 173.313 35.7135C172.713 37.2975 169.473 39.6495 165.825 39.9375V37.6815C169.209 37.1055 171.705 34.2495 171.705 30.3375V28.2495H175.065ZM163.665 43.4895H183.105V45.6495H163.665V43.4895ZM185.275 43.7295H204.715V45.8895H185.275V43.7295ZM187.699 28.2495H202.099V30.4095H190.939V33.2655H201.835V35.4255H190.939V37.5615C190.939 38.1135 191.299 38.4495 192.019 38.4495H202.339V40.6095H190.219C188.779 40.6095 187.699 39.2415 187.699 37.6335V28.2495ZM214.08 37.2495H233.52V39.4095H228C229.056 40.4895 229.728 41.8575 229.728 43.5615C229.704 47.2095 226.92 49.5135 223.8 49.5135C220.56 49.5135 217.848 47.1135 217.848 43.5615C217.848 41.8815 218.52 40.4895 219.552 39.4095H214.08V37.2495ZM223.8 39.7215C222.504 39.7215 221.088 41.1375 221.088 43.5615C221.064 46.0095 222.408 47.3535 223.776 47.3535C225.096 47.3535 226.488 46.0095 226.488 43.5615C226.488 41.0655 225.144 39.7215 223.8 39.7215ZM216.504 27.2895H231.144V29.4495H219.744V32.1615C219.744 32.7135 220.104 33.0495 220.824 33.0495H231.144V35.2095H219.024C217.584 35.2095 216.504 33.8415 216.504 32.2095V27.2895ZM252.993 36.5295H247.041V37.9695H255.129V40.1295H235.689V37.9695H243.777V36.5295H240.609C239.289 36.5295 238.113 35.1615 238.113 33.6015V30.8175H249.513V29.4495H238.113V27.2895H252.753V30.9375C252.753 32.0175 252.009 32.9775 251.169 32.9775H241.353V33.5535C241.353 34.0335 241.713 34.3695 242.337 34.3695H252.993V36.5295ZM252.729 49.0095H249.489V43.7295H238.089V41.5695H252.729V49.0095Z" fill="#605C5C"/>
<defs>
<filter id="filter0_d_230_726" x="0" y="0" width="314" height="81" filterUnits="userSpaceOnUse" color-interpolation-filters="sRGB">
<feFlood flood-opacity="0" result="BackgroundImageFix"/>
<feColorMatrix in="SourceAlpha" type="matrix" values="0 0 0 0 0 0 0 0 0 0 0 0 0 0 0 0 0 0 127 0" result="hardAlpha"/>
<feOffset dy="4"/>
<feGaussianBlur stdDeviation="2"/>
<feComposite in2="hardAlpha" operator="out"/>
<feColorMatrix type="matrix" values="0 0 0 0 0 0 0 0 0 0 0 0 0 0 0 0 0 0 0.25 0"/>
<feBlend mode="normal" in2="BackgroundImageFix" result="effect1_dropShadow_230_726"/>
<feBlend mode="normal" in="SourceGraphic" in2="effect1_dropShadow_230_726" result="shape"/>
</filter>
</defs>
</svg>
