<svg width="201" height="58" viewBox="0 0 201 58" fill="none" xmlns="http://www.w3.org/2000/svg">
<g opacity="0.5" filter="url(#filter0_d_44_1114)">
<path d="M4 25C4 11.1929 15.1929 0 29 0H172C185.807 0 197 11.1929 197 25C197 38.8071 185.807 50 172 50H29C15.1929 50 4 38.8071 4 25Z" fill="#4E8C9F"/>
</g>
<path d="M28.4029 25.2421C28.8629 24.1421 28.9229 23.0021 28.9229 21.5221V19.0421H19.4229V17.2421H31.6229V21.4821C31.6229 23.0021 31.4029 24.2021 31.0229 25.2421H33.6029V27.0421H26.8629V34.7421H24.1429V27.0421H17.4029V25.2421H28.4029ZM37.9107 19.4421V26.9621C37.9107 27.4821 38.2107 27.7421 38.6107 27.7421H40.0107V19.4421H37.9107ZM46.9107 24.0421V34.7421H44.3107V16.6421H46.9107V22.2421H48.2107V16.6421H50.8107V34.7421H48.2107V24.0421H46.9107ZM42.7107 17.6421V29.5421H37.3907C36.1907 29.5421 35.2107 28.4621 35.2107 27.1221V17.6421H42.7107ZM57.8186 19.4421H53.3186V17.6421H60.6186V19.6421H62.5186V16.6421H65.1186V34.7421H62.5186V27.6421H59.4386V25.8421H62.5186V21.4421H60.4986C59.9186 25.6021 57.3586 29.0421 53.2186 29.8221V28.0021C56.0986 26.8421 57.7986 23.6821 57.8186 20.1821V19.4421ZM68.8186 16.6421V34.7421H66.2186V16.6421H68.8186ZM74.8064 17.6421V16.2221H77.6064V17.6421H81.2464V19.4421H79.8864C80.3664 20.0021 80.6864 20.7021 80.6864 21.5421C80.6864 23.3621 79.2464 24.7621 77.5464 25.2421V25.9421H81.0264C81.7264 25.9421 82.4064 25.8821 83.1264 25.4821V16.6421H85.8264V28.2421H83.1264V27.3621C82.6064 27.6021 81.7864 27.7421 81.1664 27.7421H70.9264V25.9421H74.8664V25.2421C73.1264 24.7821 71.7064 23.3821 71.7064 21.5421C71.7064 20.7021 72.0264 20.0021 72.5064 19.4421H71.2464V17.6421H74.8064ZM76.2064 19.4821C75.2064 19.4821 74.4064 20.3621 74.4064 21.5421C74.4064 22.6421 75.1264 23.5221 76.1864 23.5221C77.0864 23.5221 77.9864 22.7021 77.9864 21.5421C77.9864 20.4021 77.1664 19.4821 76.2064 19.4821ZM85.8264 34.9421H83.1264V30.7421H74.0264V28.9421H85.8264V34.9421ZM91.6342 29.7421C90.5142 29.7421 89.5342 28.6021 89.5342 27.3221V22.6421H95.5342V19.4421H89.5342V17.6421H98.2342V22.7621C98.2342 23.6421 97.6142 24.4421 96.9142 24.4421H92.2342V27.2221C92.2342 27.6621 92.5342 27.9421 93.0542 27.9421H97.4342C98.8742 27.9421 100.034 27.9621 101.134 27.3221V16.6421H103.834V34.7421H101.134V29.1021C100.174 29.6021 98.7942 29.7421 97.4742 29.7421H91.6342ZM116.942 17.6421V19.4221C116.942 22.6221 118.842 25.0421 121.842 25.4821V27.3621C118.602 27.1621 115.962 25.1421 115.482 23.8621C114.982 25.1821 112.282 27.1421 109.242 27.3821V25.5021C112.062 25.0221 114.142 22.6421 114.142 19.3821V17.6421H116.942ZM107.442 30.3421H123.642V32.1421H107.442V30.3421ZM125.45 30.5421H141.65V32.3421H125.45V30.5421ZM127.47 17.6421H139.47V19.4421H130.17V21.8221H139.25V23.6221H130.17V25.4021C130.17 25.8621 130.47 26.1421 131.07 26.1421H139.67V27.9421H129.57C128.37 27.9421 127.47 26.8021 127.47 25.4621V17.6421ZM153.914 17.1621C156.534 17.1621 158.754 19.6021 158.754 23.4421C158.754 27.2421 156.614 29.7421 153.914 29.7421C151.094 29.7421 149.054 27.1821 149.054 23.4421C149.054 19.6621 151.194 17.1621 153.914 17.1621ZM153.914 18.9621C152.794 18.9621 151.754 20.4821 151.754 23.4421C151.754 26.2621 152.794 27.9421 153.894 27.9421C155.054 27.9421 156.054 26.3421 156.054 23.4421C156.054 20.4621 155.074 18.9621 153.914 18.9621ZM163.854 16.6421V34.7421H161.154V16.6421H163.854ZM175.562 27.1021C174.482 27.1021 173.302 28.3821 173.302 30.4021C173.282 32.4421 174.402 33.5621 175.542 33.5621C176.642 33.5621 177.802 32.4421 177.802 30.4021C177.802 28.3221 176.682 27.1021 175.562 27.1021ZM169.482 16.8421H181.682V18.6421H172.182V20.9021C172.182 21.3621 172.482 21.6421 173.082 21.6421H181.682V23.4421H176.922V24.8421H183.662V26.6421H178.862C179.842 27.5621 180.502 28.8821 180.502 30.4021C180.482 33.4421 178.162 35.3621 175.562 35.3621C172.862 35.3621 170.602 33.3621 170.602 30.4021C170.602 28.9021 171.242 27.5621 172.242 26.6421H167.462V24.8421H174.202V23.4421H171.582C170.382 23.4421 169.482 22.3021 169.482 20.9421V16.8421Z" fill="#605C5C"/>
<defs>
<filter id="filter0_d_44_1114" x="0" y="0" width="201" height="58" filterUnits="userSpaceOnUse" color-interpolation-filters="sRGB">
<feFlood flood-opacity="0" result="BackgroundImageFix"/>
<feColorMatrix in="SourceAlpha" type="matrix" values="0 0 0 0 0 0 0 0 0 0 0 0 0 0 0 0 0 0 127 0" result="hardAlpha"/>
<feOffset dy="4"/>
<feGaussianBlur stdDeviation="2"/>
<feComposite in2="hardAlpha" operator="out"/>
<feColorMatrix type="matrix" values="0 0 0 0 0 0 0 0 0 0 0 0 0 0 0 0 0 0 0.25 0"/>
<feBlend mode="normal" in2="BackgroundImageFix" result="effect1_dropShadow_44_1114"/>
<feBlend mode="normal" in="SourceGraphic" in2="effect1_dropShadow_44_1114" result="shape"/>
</filter>
</defs>
</svg>
