<svg width="331" height="71" viewBox="0 0 331 71" fill="none" xmlns="http://www.w3.org/2000/svg">
<g opacity="0.5" filter="url(#filter0_d_235_729)">
<path d="M4 31.5C4 14.103 18.103 0 35.5 0H295.5C312.897 0 327 14.103 327 31.5V31.5C327 48.897 312.897 63 295.5 63H35.5C18.103 63 4 48.897 4 31.5V31.5Z" fill="#E8BE98"/>
</g>
<path d="M50.3212 25.9211H47.7612C47.9212 28.0811 48.9212 29.6611 50.6412 30.2011V32.0811C48.5812 31.9011 46.6212 30.3211 46.3012 29.4011C46.0012 30.3411 44.0812 31.8811 42.0412 32.0811V30.2011C43.7012 29.6611 44.7612 28.1211 44.9212 25.9211H42.3412V24.1211H44.9412V22.5211H47.7412V24.1211H50.3212V25.9211ZM54.1412 28.0211V32.4211H51.5412V22.7211H54.1412V26.2211H55.4412V22.7211H58.0412V32.4211H55.4412V28.0211H54.1412ZM58.2612 41.0211H48.1412C47.0412 41.0211 46.0612 39.8811 46.0612 38.5811V36.1611H55.3412V35.0011H46.0612V33.2011H58.0612V36.2611C58.0612 37.1611 57.4412 37.9611 56.7412 37.9611H48.7612V38.5211C48.7612 38.9411 49.0612 39.2211 49.5812 39.2211H58.2612V41.0211ZM66.749 39.0211H75.049V40.8211H65.169C64.069 40.8211 63.249 39.7011 63.249 38.4211V34.6211H65.949V38.2211C65.949 38.7011 66.269 39.0211 66.749 39.0211ZM62.869 33.3011C61.729 33.3011 60.749 32.1611 60.749 30.8611V27.4211H66.749V25.2011H60.749V23.4011H69.449V27.5411C69.449 28.4211 68.829 29.2211 68.129 29.2211H63.449V30.7811C63.449 31.2211 63.749 31.5011 64.269 31.5011H68.449C69.989 31.5011 71.129 31.4811 72.349 30.7411V22.7211H75.049V36.2211H72.349V32.5211C71.329 33.1411 69.909 33.3011 68.469 33.3011H62.869ZM87.8568 25.5211H84.7568V27.3611C84.7368 30.6011 86.0768 33.1611 88.2568 34.0011V35.9011C85.8368 35.5611 83.6368 33.4611 83.2768 32.3611C82.9168 33.4811 80.7968 35.5211 78.4568 35.9011V34.0011C80.6168 33.1411 81.9368 30.6411 81.9568 27.3211V25.5211H78.7568V23.7211H87.8568V25.5211ZM93.0568 22.7211V40.8211H90.3568V22.7211H93.0568ZM111.861 25.1211H108.761C108.801 28.0211 110.161 30.0811 112.261 30.6611V32.4611C109.901 32.3411 107.681 30.5011 107.321 29.4411C106.921 30.4811 104.841 32.3011 102.461 32.4611V30.6611C104.641 30.0411 105.901 28.0411 105.961 25.1211H102.761V23.3211H111.861V25.1211ZM117.261 22.7211V32.8211H114.561V28.3211H111.061V26.5211H114.561V22.7211H117.261ZM117.261 41.0211H114.561V35.6211H105.461V33.8211H117.261V41.0211ZM131.769 30.1011C132.089 29.0811 132.189 27.7811 132.189 26.4811V24.9211H122.689V23.1211H134.889V26.4211C134.889 27.7811 134.709 29.1011 134.389 30.1011H136.869V31.9011H120.669V30.1011H131.769ZM125.369 35.4811V38.5011C125.369 39.0211 125.689 39.2211 126.149 39.2211H132.169V35.4811H125.369ZM134.869 33.6811V41.0211H124.509C123.509 41.0211 122.669 39.9011 122.669 38.5411V33.6811H134.869ZM143.076 25.5211H138.576V23.7211H145.876V25.7211H147.776V22.7211H150.376V40.8211H147.776V33.7211H144.696V31.9211H147.776V27.5211H145.756C145.176 31.6811 142.616 35.1211 138.476 35.9011V34.0811C141.356 32.9211 143.056 29.7611 143.076 26.2611V25.5211ZM154.076 22.7211V40.8211H151.476V22.7211H154.076ZM166.384 25.5211H163.084C163.084 28.6211 164.144 30.7211 166.584 31.4411V33.3011C164.144 33.0811 161.944 31.2411 161.644 30.2611C161.304 31.2211 159.244 33.0811 156.784 33.3011V31.4211C159.124 30.8011 160.264 28.6411 160.284 25.5211H156.984V23.7211H166.384V25.5211ZM168.184 36.6211C167.664 36.8611 166.844 37.0011 166.224 37.0011H156.184V35.2011H160.184V32.3611H162.864V35.2011H166.084C166.784 35.2011 167.364 35.2211 168.184 34.7411V22.7211H170.884V27.8211H173.484V29.6211H170.884V40.8211H168.184V36.6211ZM185.088 25.5211H180.588V23.7211H187.888V25.7411C187.868 30.6811 185.208 35.0011 180.488 35.9011V34.0811C183.368 32.9211 185.068 29.7611 185.088 26.2611V25.5211ZM192.188 30.1211V40.8211H189.588V22.7211H192.188V28.3211H193.488V22.7211H196.088V40.8211H193.488V30.1211H192.188ZM204.796 23.1211V24.0811C204.796 27.0411 206.136 29.2611 208.296 29.8011V31.6611C205.856 31.4411 203.796 29.9011 203.356 28.6611C202.876 29.8611 200.836 31.4411 198.496 31.6611V29.8011C200.756 29.2611 201.976 27.0411 201.996 24.1211V23.1211H204.796ZM207.096 25.8211H210.596V22.7211H213.296V31.8211H210.596V27.6211H207.096V25.8211ZM213.516 41.0211H203.596C202.496 41.0211 201.516 39.8811 201.516 38.5811V35.9811H210.596V34.6211H201.516V32.8211H213.316V36.0811C213.316 36.9811 212.696 37.7811 211.996 37.7811H204.216V38.5211C204.216 38.9411 204.516 39.2211 205.036 39.2211H213.516V41.0211ZM219.864 24.6211V22.7211H222.664V24.6211H226.404V26.4211H224.444C225.324 27.4811 225.884 28.9811 225.904 30.7211C225.884 34.1011 223.984 36.6211 221.264 36.6211C218.464 36.6411 216.604 34.1011 216.604 30.7211C216.604 28.9811 217.164 27.4811 218.044 26.4211H216.204V24.6211H219.864ZM221.264 26.4611C220.164 26.4611 219.284 28.1411 219.304 30.7211C219.284 33.1811 220.144 34.8211 221.244 34.8211C222.364 34.8211 223.204 33.2211 223.204 30.7211C223.204 28.0211 222.404 26.4611 221.264 26.4611ZM230.904 30.0211V40.8211H228.204V22.7211H230.904V28.2211H233.504V30.0211H230.904ZM236.912 35.8211C235.792 35.8211 234.812 34.6811 234.812 33.4011V28.7211H240.812V25.5211H234.812V23.7211H243.512V28.8411C243.512 29.7211 242.892 30.5211 242.192 30.5211H237.512V33.3011C237.512 33.7411 237.812 34.0211 238.332 34.0211H242.712C244.232 34.0211 245.452 34.0411 246.612 33.2811V30.2211H244.112V28.4211H246.612V22.7211H249.312V40.8211H246.612V35.0611C245.632 35.6611 244.152 35.8211 242.752 35.8211H236.912ZM258.719 25.5211H253.019V23.7211H261.519V25.5611C261.519 31.0411 257.819 35.4611 252.819 35.8811V34.0811C256.779 33.0011 258.719 29.1011 258.719 25.8611V25.5211ZM266.919 30.0211V40.8211H264.219V22.7211H266.919V28.2211H269.519V30.0211H266.919ZM276.727 25.5211H271.027V23.7211H279.527V25.5611C279.527 31.0411 275.827 35.4611 270.827 35.8811V34.0811C274.787 33.0011 276.727 29.1011 276.727 25.8611V25.5211ZM285.127 22.7211V40.8211H282.427V22.7211H285.127Z" fill="#605C5C"/>
<defs>
<filter id="filter0_d_235_729" x="0" y="0" width="331" height="71" filterUnits="userSpaceOnUse" color-interpolation-filters="sRGB">
<feFlood flood-opacity="0" result="BackgroundImageFix"/>
<feColorMatrix in="SourceAlpha" type="matrix" values="0 0 0 0 0 0 0 0 0 0 0 0 0 0 0 0 0 0 127 0" result="hardAlpha"/>
<feOffset dy="4"/>
<feGaussianBlur stdDeviation="2"/>
<feComposite in2="hardAlpha" operator="out"/>
<feColorMatrix type="matrix" values="0 0 0 0 0 0 0 0 0 0 0 0 0 0 0 0 0 0 0.25 0"/>
<feBlend mode="normal" in2="BackgroundImageFix" result="effect1_dropShadow_235_729"/>
<feBlend mode="normal" in="SourceGraphic" in2="effect1_dropShadow_235_729" result="shape"/>
</filter>
</defs>
</svg>
