<svg width="181" height="56" viewBox="0 0 181 56" fill="none" xmlns="http://www.w3.org/2000/svg">
<g opacity="0.5" filter="url(#filter0_d_44_1111)">
<path d="M4 24C4 10.7452 14.7452 0 28 0H153C166.255 0 177 10.7452 177 24V24C177 37.2548 166.255 48 153 48H28C14.7452 48 4 37.2548 4 24V24Z" fill="#E8BE98"/>
</g>
<path d="M29.8274 14.9084C32.2274 14.9084 34.5474 16.8284 34.5474 19.4684C34.5474 22.2084 32.2274 24.0284 29.8274 24.0284C27.3274 24.0284 25.0674 22.2084 25.0674 19.4684C25.0674 16.8484 27.2874 14.9084 29.8274 14.9084ZM29.8274 16.7084C28.8074 16.7084 27.7674 17.7884 27.7674 19.4684C27.7674 21.1284 28.7474 22.2284 29.8074 22.2284C30.8274 22.2284 31.8474 21.0684 31.8474 19.4684C31.8474 17.7284 30.8874 16.7084 29.8274 16.7084ZM39.3874 15.1684V33.2684H36.6874V26.3684C36.1674 26.6084 35.3474 26.7484 34.7274 26.7484H31.2474V32.6684H28.5274V26.7484H24.4874V24.9484H34.5074C35.2874 24.9484 35.8674 24.9684 36.6874 24.4884V15.1684H39.3874ZM49.0952 16.1684V19.8084C49.0752 23.0484 50.3552 25.6084 52.5952 26.4484V28.3484C50.0352 28.0084 47.9952 25.9484 47.6152 24.8084C47.2752 25.9284 45.0752 28.0284 42.7952 28.3484V26.4484C44.9552 25.6084 46.2752 23.0884 46.2952 19.7684V16.1684H49.0952ZM57.3952 15.1684V33.2684H54.6952V15.1684H57.3952ZM63.203 28.2684C62.083 28.2684 61.103 27.1284 61.103 25.8484V21.1684H67.103V17.9684H61.103V16.1684H69.803V21.2884C69.803 22.1684 69.183 22.9684 68.483 22.9684H63.803V25.7484C63.803 26.1884 64.103 26.4684 64.623 26.4684H69.003C70.443 26.4684 71.603 26.4884 72.703 25.8484V15.1684H75.403V33.2684H72.703V27.6284C71.743 28.1284 70.363 28.2684 69.043 28.2684H63.203ZM88.5108 16.1684V17.9484C88.5108 21.1484 90.4108 23.5684 93.4108 24.0084V25.8884C90.1708 25.6884 87.5308 23.6684 87.0508 22.3884C86.5508 23.7084 83.8508 25.6684 80.8108 25.9084V24.0284C83.6308 23.5484 85.7108 21.1684 85.7108 17.9084V16.1684H88.5108ZM79.0108 28.8684H95.2108V30.6684H79.0108V28.8684ZM97.0187 29.0684H113.219V30.8684H97.0187V29.0684ZM99.0387 16.1684H111.039V17.9684H101.739V20.3484H110.819V22.1484H101.739V23.9284C101.739 24.3884 102.039 24.6684 102.639 24.6684H111.239V26.4684H101.139C99.9387 26.4684 99.0387 25.3284 99.0387 23.9884V16.1684ZM127.123 15.7684V17.2084C127.103 20.3084 128.383 22.4484 130.623 23.1084V24.9084C128.123 24.7884 126.023 22.8884 125.683 21.8884C125.323 22.8684 123.283 24.7284 120.823 24.9084V23.1084C123.063 22.4884 124.303 20.3084 124.323 17.1684V15.7684H127.123ZM135.223 20.4684V25.2684H132.523V15.1684H135.223V18.6684H137.823V20.4684H135.223ZM135.223 33.4684H132.523V28.0684H123.423V26.2684H135.223V33.4684ZM146.71 17.9684H144.13V19.7484C144.13 23.0684 145.07 25.5884 147.03 26.3684V28.3084C145.05 27.9884 142.95 26.1484 142.65 25.0884C142.29 26.1684 140.37 27.9884 138.43 28.3084V26.3684C140.43 25.5084 141.33 23.0484 141.33 19.7084V17.9684H138.73V16.1684H146.71V17.9684ZM154.43 15.1684V33.2684H151.83V15.1684H154.43ZM150.73 15.1684V33.2684H148.13V22.2684H145.43V20.4684H148.13V15.1684H150.73Z" fill="#605C5C"/>
<defs>
<filter id="filter0_d_44_1111" x="0" y="0" width="181" height="56" filterUnits="userSpaceOnUse" color-interpolation-filters="sRGB">
<feFlood flood-opacity="0" result="BackgroundImageFix"/>
<feColorMatrix in="SourceAlpha" type="matrix" values="0 0 0 0 0 0 0 0 0 0 0 0 0 0 0 0 0 0 127 0" result="hardAlpha"/>
<feOffset dy="4"/>
<feGaussianBlur stdDeviation="2"/>
<feComposite in2="hardAlpha" operator="out"/>
<feColorMatrix type="matrix" values="0 0 0 0 0 0 0 0 0 0 0 0 0 0 0 0 0 0 0.25 0"/>
<feBlend mode="normal" in2="BackgroundImageFix" result="effect1_dropShadow_44_1111"/>
<feBlend mode="normal" in="SourceGraphic" in2="effect1_dropShadow_44_1111" result="shape"/>
</filter>
</defs>
</svg>
