<svg width="178" height="58" viewBox="0 0 178 58" fill="none" xmlns="http://www.w3.org/2000/svg">
<g opacity="0.5" filter="url(#filter0_d_230_723)">
<path d="M4 25C4 11.1929 15.1929 0 29 0H149C162.807 0 174 11.1929 174 25V25C174 38.8071 162.807 50 149 50H29C15.1929 50 4 38.8071 4 25V25Z" fill="#E8BE98"/>
</g>
<path d="M67.9035 34.9421H57.5835C56.4835 34.9421 55.5035 33.8021 55.5035 32.5021V30.2621H64.9835V29.2421H55.5035V27.4421H67.7035V30.3621C67.7035 31.2621 67.0835 32.0621 66.3835 32.0621H58.2035V32.4621C58.2035 32.8621 58.5035 33.1421 59.0235 33.1421H67.9035V34.9421ZM55.5035 16.8421H67.7035V18.6421H58.2035V20.3821C58.2035 20.8621 58.5035 21.1421 59.1035 21.1421H67.7035V22.9421H62.9435V24.2421H69.6835V26.0421H53.4835V24.2421H60.2235V22.9421H57.6035C56.4035 22.9421 55.5035 21.8021 55.5035 20.4421V16.8421ZM75.9513 17.1621C78.5713 17.1621 80.7913 19.6021 80.7913 23.4421C80.7913 27.2421 78.6513 29.7421 75.9513 29.7421C73.1313 29.7421 71.0913 27.1821 71.0913 23.4421C71.0913 19.6621 73.2313 17.1621 75.9513 17.1621ZM75.9513 18.9621C74.8313 18.9621 73.7913 20.4821 73.7913 23.4421C73.7913 26.2621 74.8313 27.9421 75.9313 27.9421C77.0913 27.9421 78.0913 26.3421 78.0913 23.4421C78.0913 20.4621 77.1113 18.9621 75.9513 18.9621ZM85.6913 23.9421V34.7421H82.9913V16.6421H85.6913V22.1421H88.2913V23.9421H85.6913ZM95.4991 19.4421H89.7991V17.6421H98.2991V19.4821C98.2991 24.9621 94.5991 29.3821 89.5991 29.8021V28.0021C93.5591 26.9221 95.4991 23.0221 95.4991 19.7821V19.4421ZM103.699 23.9421V34.7421H100.999V16.6421H103.699V22.1421H106.299V23.9421H103.699ZM113.507 19.4421H107.807V17.6421H116.307V19.4821C116.307 24.9621 112.607 29.3821 107.607 29.8021V28.0021C111.567 26.9221 113.507 23.0221 113.507 19.7821V19.4421ZM121.907 16.6421V34.7421H119.207V16.6421H121.907Z" fill="#605C5C"/>
<defs>
<filter id="filter0_d_230_723" x="0" y="0" width="178" height="58" filterUnits="userSpaceOnUse" color-interpolation-filters="sRGB">
<feFlood flood-opacity="0" result="BackgroundImageFix"/>
<feColorMatrix in="SourceAlpha" type="matrix" values="0 0 0 0 0 0 0 0 0 0 0 0 0 0 0 0 0 0 127 0" result="hardAlpha"/>
<feOffset dy="4"/>
<feGaussianBlur stdDeviation="2"/>
<feComposite in2="hardAlpha" operator="out"/>
<feColorMatrix type="matrix" values="0 0 0 0 0 0 0 0 0 0 0 0 0 0 0 0 0 0 0.25 0"/>
<feBlend mode="normal" in2="BackgroundImageFix" result="effect1_dropShadow_230_723"/>
<feBlend mode="normal" in="SourceGraphic" in2="effect1_dropShadow_230_723" result="shape"/>
</filter>
</defs>
</svg>
