<svg width="256" height="81" viewBox="0 0 256 81" fill="none" xmlns="http://www.w3.org/2000/svg">
<g opacity="0.5" filter="url(#filter0_d_227_688)">
<path d="M4 36.5C4 16.3416 20.3416 0 40.5 0H215.5C235.658 0 252 16.3416 252 36.5V36.5C252 56.6584 235.658 73 215.5 73H40.5C20.3416 73 4 56.6584 4 36.5V36.5Z" fill="#4E8C9F"/>
</g>
<path d="M39.8908 37.3695C40.4428 36.0495 40.5148 34.6815 40.5148 32.9055V29.9295H29.1148V27.7695H43.7548V32.8575C43.7548 34.6815 43.4908 36.1215 43.0348 37.3695H46.1308V39.5295H38.0428V48.7695H34.7788V39.5295H26.6908V37.3695H39.8908ZM51.3002 30.4095V39.4335C51.3002 40.0575 51.6602 40.3695 52.1402 40.3695H53.8202V30.4095H51.3002ZM62.1002 35.9295V48.7695H58.9802V27.0495H62.1002V33.7695H63.6602V27.0495H66.7802V48.7695H63.6602V35.9295H62.1002ZM57.0602 28.2495V42.5295H50.6762C49.2362 42.5295 48.0602 41.2335 48.0602 39.6255V28.2495H57.0602ZM75.1896 30.4095H69.7896V28.2495H78.5496V30.6495H80.8296V27.0495H83.9496V48.7695H80.8296V40.2495H77.1336V38.0895H80.8296V32.8095H78.4056C77.7096 37.8015 74.6376 41.9295 69.6696 42.8655V40.6815C73.1256 39.2895 75.1656 35.4975 75.1896 31.2975V30.4095ZM88.3896 27.0495V48.7695H85.2696V27.0495H88.3896ZM95.575 28.2495V26.5455H98.935V28.2495H103.303V30.4095H101.671C102.247 31.0815 102.631 31.9215 102.631 32.9295C102.631 35.1135 100.903 36.7935 98.863 37.3695V38.2095H103.039C103.879 38.2095 104.695 38.1375 105.559 37.6575V27.0495H108.799V40.9695H105.559V39.9135C104.935 40.2015 103.951 40.3695 103.207 40.3695H90.919V38.2095H95.647V37.3695C93.559 36.8175 91.855 35.1375 91.855 32.9295C91.855 31.9215 92.239 31.0815 92.815 30.4095H91.303V28.2495H95.575ZM97.255 30.4575C96.055 30.4575 95.095 31.5135 95.095 32.9295C95.095 34.2495 95.959 35.3055 97.231 35.3055C98.311 35.3055 99.391 34.3215 99.391 32.9295C99.391 31.5615 98.407 30.4575 97.255 30.4575ZM108.799 49.0095H105.559V43.9695H94.639V41.8095H108.799V49.0095ZM115.768 42.7695C114.424 42.7695 113.248 41.4015 113.248 39.8655V34.2495H120.448V30.4095H113.248V28.2495H123.688V34.3935C123.688 35.4495 122.944 36.4095 122.104 36.4095H116.488V39.7455C116.488 40.2735 116.848 40.6095 117.472 40.6095H122.728C124.456 40.6095 125.848 40.6335 127.168 39.8655V27.0495H130.408V48.7695H127.168V42.0015C126.016 42.6015 124.36 42.7695 122.776 42.7695H115.768ZM146.138 28.2495V30.3855C146.138 34.2255 148.418 37.1295 152.018 37.6575V39.9135C148.13 39.6735 144.962 37.2495 144.386 35.7135C143.786 37.2975 140.546 39.6495 136.898 39.9375V37.6815C140.282 37.1055 142.778 34.2495 142.778 30.3375V28.2495H146.138ZM134.738 43.4895H154.178V45.6495H134.738V43.4895ZM156.347 43.7295H175.787V45.8895H156.347V43.7295ZM158.771 28.2495H173.171V30.4095H162.011V33.2655H172.907V35.4255H162.011V37.5615C162.011 38.1135 162.371 38.4495 163.091 38.4495H173.411V40.6095H161.291C159.851 40.6095 158.771 39.2415 158.771 37.6335V28.2495ZM185.152 37.2495H204.592V39.4095H199.072C200.128 40.4895 200.8 41.8575 200.8 43.5615C200.776 47.2095 197.992 49.5135 194.872 49.5135C191.632 49.5135 188.92 47.1135 188.92 43.5615C188.92 41.8815 189.592 40.4895 190.624 39.4095H185.152V37.2495ZM194.872 39.7215C193.576 39.7215 192.16 41.1375 192.16 43.5615C192.136 46.0095 193.48 47.3535 194.848 47.3535C196.168 47.3535 197.56 46.0095 197.56 43.5615C197.56 41.0655 196.216 39.7215 194.872 39.7215ZM187.576 27.2895H202.216V29.4495H190.816V32.1615C190.816 32.7135 191.176 33.0495 191.896 33.0495H202.216V35.2095H190.096C188.656 35.2095 187.576 33.8415 187.576 32.2095V27.2895ZM224.065 36.5295H218.113V37.9695H226.201V40.1295H206.761V37.9695H214.849V36.5295H211.681C210.361 36.5295 209.185 35.1615 209.185 33.6015V30.8175H220.585V29.4495H209.185V27.2895H223.825V30.9375C223.825 32.0175 223.081 32.9775 222.241 32.9775H212.425V33.5535C212.425 34.0335 212.785 34.3695 213.409 34.3695H224.065V36.5295ZM223.801 49.0095H220.561V43.7295H209.161V41.5695H223.801V49.0095Z" fill="#605C5C"/>
<defs>
<filter id="filter0_d_227_688" x="0" y="0" width="256" height="81" filterUnits="userSpaceOnUse" color-interpolation-filters="sRGB">
<feFlood flood-opacity="0" result="BackgroundImageFix"/>
<feColorMatrix in="SourceAlpha" type="matrix" values="0 0 0 0 0 0 0 0 0 0 0 0 0 0 0 0 0 0 127 0" result="hardAlpha"/>
<feOffset dy="4"/>
<feGaussianBlur stdDeviation="2"/>
<feComposite in2="hardAlpha" operator="out"/>
<feColorMatrix type="matrix" values="0 0 0 0 0 0 0 0 0 0 0 0 0 0 0 0 0 0 0.25 0"/>
<feBlend mode="normal" in2="BackgroundImageFix" result="effect1_dropShadow_227_688"/>
<feBlend mode="normal" in="SourceGraphic" in2="effect1_dropShadow_227_688" result="shape"/>
</filter>
</defs>
</svg>
